<svg width="494" height="150" viewBox="0 0 494 150" fill="none" xmlns="http://www.w3.org/2000/svg">
<mask id="path-1-outside-1_2416_90" maskUnits="userSpaceOnUse" x="7" y="7.29841" width="135" height="135" fill="black">
<rect fill="white" x="7" y="7.29841" width="135" height="135"/>
<path d="M74.3291 8.29841C110.961 8.29859 140.657 37.9824 140.657 74.5992C140.657 111.216 110.961 140.901 74.3291 140.901C37.6967 140.901 8 111.216 8 74.5992C8.00014 37.9823 37.6968 8.29841 74.3291 8.29841ZM74.3291 21.2877C44.8858 21.2877 21.0167 45.1559 21.0166 74.5992C21.0166 104.043 44.8857 127.912 74.3291 127.912C103.772 127.912 127.641 104.042 127.641 74.5992C127.64 45.156 103.772 21.2878 74.3291 21.2877Z"/>
</mask>
<path d="M74.3291 8.29841C110.961 8.29859 140.657 37.9824 140.657 74.5992C140.657 111.216 110.961 140.901 74.3291 140.901C37.6967 140.901 8 111.216 8 74.5992C8.00014 37.9823 37.6968 8.29841 74.3291 8.29841ZM74.3291 21.2877C44.8858 21.2877 21.0167 45.1559 21.0166 74.5992C21.0166 104.043 44.8857 127.912 74.3291 127.912C103.772 127.912 127.641 104.042 127.641 74.5992C127.64 45.156 103.772 21.2878 74.3291 21.2877Z" fill="#000080"/>
<path d="M74.3291 8.29841L74.3291 7.29841H74.3291V8.29841ZM140.657 74.5992H141.657V74.5992L140.657 74.5992ZM74.3291 140.901V141.901H74.3291L74.3291 140.901ZM8 74.5992L7 74.5992V74.5992H8ZM74.3291 21.2877L74.3291 20.2877H74.3291V21.2877ZM21.0166 74.5992L20.0166 74.5992V74.5992H21.0166ZM74.3291 127.912V128.912H74.3291L74.3291 127.912ZM127.641 74.5992H128.641V74.5992L127.641 74.5992ZM74.3291 8.29841L74.3291 9.29841C110.409 9.29859 139.657 38.535 139.657 74.5992L140.657 74.5992L141.657 74.5992C141.657 37.4297 111.513 7.29859 74.3291 7.29841L74.3291 8.29841ZM140.657 74.5992H139.657C139.657 110.663 110.409 139.901 74.3291 139.901L74.3291 140.901L74.3291 141.901C111.513 141.901 141.657 111.769 141.657 74.5992H140.657ZM74.3291 140.901V139.901C38.2486 139.901 9 110.664 9 74.5992H8H7C7 111.769 37.1448 141.901 74.3291 141.901V140.901ZM8 74.5992L9 74.5992C9.00014 38.5349 38.2487 9.29841 74.3291 9.29841V8.29841V7.29841C37.1449 7.29841 7.00014 37.4296 7 74.5992L8 74.5992ZM74.3291 21.2877V20.2877C44.3335 20.2877 20.0167 44.6036 20.0166 74.5992L21.0166 74.5992L22.0166 74.5992C22.0167 45.7082 45.4381 22.2877 74.3291 22.2877V21.2877ZM21.0166 74.5992H20.0166C20.0166 104.595 44.3334 128.912 74.3291 128.912V127.912V126.912C45.438 126.912 22.0166 103.49 22.0166 74.5992H21.0166ZM74.3291 127.912L74.3291 128.912C104.325 128.912 128.641 104.595 128.641 74.5992H127.641H126.641C126.641 103.49 103.22 126.912 74.3291 126.912L74.3291 127.912ZM127.641 74.5992L128.641 74.5992C128.64 44.6037 104.325 20.2878 74.3291 20.2877L74.3291 21.2877L74.3291 22.2877C103.22 22.2878 126.64 45.7083 126.641 74.5992L127.641 74.5992Z" fill="#FFCB2C" mask="url(#path-1-outside-1_2416_90)"/>
<mask id="path-3-inside-2_2416_90" fill="white">
<path d="M110.583 46.2984L106.682 54.6441H85.5342V71.3365H106.682L102.78 79.7222H85.5342V102.693H75V54.6441H52.5342V71.3365H73.6816L69.7803 79.7222H52.5342V102.693H42V46.2984H110.583Z"/>
</mask>
<path d="M110.583 46.2984L106.682 54.6441H85.5342V71.3365H106.682L102.78 79.7222H85.5342V102.693H75V54.6441H52.5342V71.3365H73.6816L69.7803 79.7222H52.5342V102.693H42V46.2984H110.583Z" fill="#000080"/>
<path d="M110.583 46.2984L111.489 46.7219L112.154 45.2984H110.583V46.2984ZM106.682 54.6441V55.6441H107.318L107.588 55.0676L106.682 54.6441ZM85.5342 54.6441V53.6441H84.5342V54.6441H85.5342ZM85.5342 71.3365H84.5342V72.3365H85.5342V71.3365ZM106.682 71.3365L107.588 71.7583L108.25 70.3365H106.682V71.3365ZM102.78 79.7222V80.7222H103.418L103.687 80.1441L102.78 79.7222ZM85.5342 79.7222V78.7222H84.5342V79.7222H85.5342ZM85.5342 102.693V103.693H86.5342V102.693H85.5342ZM75 102.693H74V103.693H75V102.693ZM75 54.6441H76V53.6441H75V54.6441ZM52.5342 54.6441V53.6441H51.5342V54.6441H52.5342ZM52.5342 71.3365H51.5342V72.3365H52.5342V71.3365ZM73.6816 71.3365L74.5883 71.7583L75.2498 70.3365H73.6816V71.3365ZM69.7803 79.7222V80.7222H70.418L70.687 80.1441L69.7803 79.7222ZM52.5342 79.7222V78.7222H51.5342V79.7222H52.5342ZM52.5342 102.693V103.693H53.5342V102.693H52.5342ZM42 102.693H41V103.693H42V102.693ZM42 46.2984V45.2984H41V46.2984H42ZM110.583 46.2984L109.677 45.8749L105.776 54.2206L106.682 54.6441L107.588 55.0676L111.489 46.7219L110.583 46.2984ZM106.682 54.6441V53.6441H85.5342V54.6441V55.6441H106.682V54.6441ZM85.5342 54.6441H84.5342V71.3365H85.5342H86.5342V54.6441H85.5342ZM85.5342 71.3365V72.3365H106.682V71.3365V70.3365H85.5342V71.3365ZM106.682 71.3365L105.775 70.9147L101.874 79.3004L102.78 79.7222L103.687 80.1441L107.588 71.7583L106.682 71.3365ZM102.78 79.7222V78.7222H85.5342V79.7222V80.7222H102.78V79.7222ZM85.5342 79.7222H84.5342V102.693H85.5342H86.5342V79.7222H85.5342ZM85.5342 102.693V101.693H75V102.693V103.693H85.5342V102.693ZM75 102.693H76V54.6441H75H74V102.693H75ZM75 54.6441V53.6441H52.5342V54.6441V55.6441H75V54.6441ZM52.5342 54.6441H51.5342V71.3365H52.5342H53.5342V54.6441H52.5342ZM52.5342 71.3365V72.3365H73.6816V71.3365V70.3365H52.5342V71.3365ZM73.6816 71.3365L72.775 70.9147L68.8736 79.3004L69.7803 79.7222L70.687 80.1441L74.5883 71.7583L73.6816 71.3365ZM69.7803 79.7222V78.7222H52.5342V79.7222V80.7222H69.7803V79.7222ZM52.5342 79.7222H51.5342V102.693H52.5342H53.5342V79.7222H52.5342ZM52.5342 102.693V101.693H42V102.693V103.693H52.5342V102.693ZM42 102.693H43V46.2984H42H41V102.693H42ZM42 46.2984V47.2984H110.583V46.2984V45.2984H42V46.2984Z" fill="#FFCB2C" mask="url(#path-3-inside-2_2416_90)"/>
<mask id="path-5-outside-3_2416_90" maskUnits="userSpaceOnUse" x="147.657" y="76" width="339" height="67" fill="black">
<rect fill="white" x="147.657" y="76" width="339" height="67"/>
<path d="M468.398 87.7539C468.399 85.6845 471.696 86.9102 473.04 87.4961C473.388 87.6477 473.6 87.9888 473.6 88.3682C473.598 89.4282 473.598 90.5122 473.597 91.6152C475.53 91.7693 477.344 92.1602 479.04 92.7881C481.287 93.6201 483.202 94.7847 484.783 96.2822L482.692 100.245C482.443 100.682 482.172 101.004 481.881 101.212C481.61 101.399 481.267 101.493 480.851 101.493C480.414 101.493 479.935 101.336 479.415 101.024C478.916 100.692 478.312 100.328 477.604 99.9326C476.897 99.5374 476.065 99.1841 475.107 98.8721C474.645 98.7077 474.139 98.5842 473.591 98.501C473.588 102.499 473.587 106.599 473.587 110.594C474.109 110.769 474.637 110.948 475.17 111.134C476.481 111.571 477.76 112.09 479.009 112.693C480.257 113.276 481.371 114.025 482.349 114.94C483.327 115.835 484.108 116.937 484.69 118.247C485.294 119.557 485.595 121.149 485.595 123.021C485.595 125.06 485.242 126.973 484.534 128.762C483.847 130.53 482.827 132.08 481.475 133.411C480.143 134.721 478.509 135.762 476.574 136.531C475.647 136.89 474.655 137.161 473.599 137.348C473.599 138.516 473.601 139.342 473.601 139.755C473.601 142.396 470.166 140.745 468.878 140.033C468.576 139.866 468.398 139.546 468.398 139.201V137.598C467.484 137.531 466.578 137.405 465.681 137.218C464.287 136.947 462.944 136.552 461.654 136.032C460.385 135.512 459.188 134.888 458.064 134.16C457.236 133.623 456.477 133.04 455.784 132.413V137.155H429.347V92.0391H437.743V130.229H455.784V130.558L457.534 127.701C457.742 127.41 458.013 127.171 458.346 126.983C458.679 126.775 459.033 126.672 459.407 126.672C459.927 126.672 460.489 126.89 461.093 127.327C461.696 127.743 462.414 128.211 463.246 128.73C464.078 129.25 465.047 129.729 466.149 130.166C466.821 130.415 467.571 130.587 468.398 130.687V117.314C468.035 117.201 467.67 117.087 467.304 116.969C466.014 116.553 464.745 116.053 463.496 115.471C462.248 114.888 461.134 114.129 460.156 113.193C459.178 112.257 458.388 111.092 457.784 109.698C457.202 108.284 456.91 106.547 456.91 104.488C456.91 102.845 457.233 101.244 457.878 99.6836C458.544 98.1236 459.5 96.7396 460.749 95.5332C461.998 94.3268 463.538 93.3598 465.369 92.6318C466.308 92.2587 467.318 91.9807 468.398 91.7988V87.7539ZM355.224 91.54C358.511 91.54 361.425 92.0805 363.964 93.1621C366.523 94.2437 368.698 95.6581 370.487 97.4053L367.679 101.306C367.512 101.555 367.293 101.774 367.022 101.961C366.773 102.148 366.419 102.241 365.962 102.241C365.65 102.241 365.327 102.158 364.994 101.992C364.661 101.805 364.297 101.587 363.901 101.337C363.506 101.067 363.049 100.775 362.528 100.463C362.008 100.151 361.404 99.8707 360.718 99.6211C360.031 99.3507 359.23 99.1322 358.314 98.9658C357.42 98.7786 356.378 98.6846 355.192 98.6846C353.174 98.6846 351.322 99.0484 349.637 99.7764C347.972 100.484 346.536 101.524 345.329 102.896C344.122 104.248 343.186 105.913 342.521 107.889C341.855 109.844 341.522 112.08 341.521 114.597C341.521 117.134 341.876 119.391 342.583 121.367C343.311 123.343 344.289 125.007 345.517 126.359C346.744 127.711 348.191 128.751 349.855 129.479C351.52 130.187 353.309 130.54 355.224 130.54C356.368 130.54 357.399 130.478 358.314 130.354C359.251 130.229 360.104 130.031 360.874 129.761C361.665 129.49 362.403 129.146 363.09 128.73C363.797 128.294 364.494 127.764 365.181 127.14C365.389 126.952 365.608 126.807 365.837 126.703C366.066 126.578 366.305 126.516 366.555 126.516C367.012 126.516 367.418 126.693 367.771 127.046L371.08 130.634C369.249 132.901 366.992 134.638 364.308 135.845C361.644 137.051 358.439 137.654 354.693 137.654C351.343 137.654 348.326 137.082 345.642 135.938C342.978 134.794 340.699 133.202 338.806 131.164C336.912 129.126 335.455 126.692 334.436 123.863C333.437 121.035 332.938 117.945 332.938 114.597C332.938 111.206 333.479 108.107 334.561 105.299C335.643 102.47 337.162 100.036 339.118 97.998C341.095 95.9598 343.446 94.379 346.172 93.2559C348.898 92.1119 351.915 91.5401 355.224 91.54ZM182.451 85.9033H159.894V103.708H182.451L178.372 112.652H159.894V137.155H148.657V77H186.612L182.451 85.9033ZM198.393 137.155H189.966V92.0391H198.393V137.155ZM209.778 92.0391C210.132 92.0391 210.434 92.06 210.684 92.1016C210.954 92.1224 211.183 92.1851 211.37 92.2891C211.578 92.3723 211.776 92.5072 211.963 92.6943C212.15 92.8607 212.359 93.0897 212.588 93.3809L236.247 123.583C236.185 122.855 236.132 122.137 236.091 121.43C236.049 120.723 236.028 120.067 236.028 119.464V92.0391H243.427V137.155H239.119C238.453 137.155 237.891 137.051 237.434 136.843C236.997 136.614 236.57 136.24 236.153 135.72L212.588 105.643C212.713 107.015 212.774 108.284 212.774 109.449V137.155H205.377V92.0391H209.778ZM289.03 137.155H282.537C281.809 137.155 281.216 136.979 280.758 136.625C280.3 136.251 279.957 135.793 279.729 135.252L276.357 126.048H257.66L254.289 135.252C254.123 135.73 253.8 136.167 253.321 136.562C252.843 136.958 252.249 137.155 251.542 137.155H244.987L262.748 92.0391H271.301L289.03 137.155ZM294.981 92.0391C295.335 92.0391 295.637 92.06 295.887 92.1016C296.157 92.1224 296.386 92.1851 296.573 92.2891C296.781 92.3722 296.979 92.5072 297.166 92.6943C297.353 92.8607 297.562 93.0897 297.791 93.3809L321.45 123.583C321.388 122.855 321.336 122.137 321.294 121.43C321.252 120.723 321.232 120.067 321.232 119.464V92.0391H328.63V137.155H324.322C323.656 137.155 323.095 137.051 322.637 136.843C322.2 136.614 321.773 136.24 321.356 135.72L297.791 105.643C297.916 107.015 297.978 108.284 297.978 109.449V137.155H290.58V92.0391H294.981ZM382.139 137.155H373.711V92.0391H382.139V137.155ZM427.796 137.155H421.304C420.576 137.155 419.982 136.978 419.524 136.625C419.067 136.251 418.723 135.793 418.494 135.252L415.123 126.048H396.427L393.056 135.252C392.889 135.73 392.566 136.167 392.088 136.562C391.609 136.958 391.016 137.155 390.309 137.155H383.754L401.515 92.0391H410.066L427.796 137.155ZM473.588 119.012C473.589 123.194 473.593 127.052 473.595 130.291C474.42 130.012 475.132 129.619 475.731 129.105C477.042 127.961 477.698 126.329 477.698 124.207C477.698 123.021 477.396 122.053 476.793 121.305C476.21 120.556 475.43 119.933 474.452 119.434C474.175 119.286 473.887 119.146 473.588 119.012ZM266.993 99.7764C266.723 100.837 266.442 101.836 266.15 102.772C265.859 103.688 265.578 104.488 265.308 105.175L259.845 120.119H274.203L268.71 105.112C268.439 104.447 268.158 103.656 267.867 102.741C267.576 101.826 267.284 100.837 266.993 99.7764ZM405.759 99.7764C405.488 100.837 405.207 101.836 404.916 102.772C404.625 103.687 404.344 104.489 404.073 105.175L398.611 120.119H412.97L407.476 105.112C407.205 104.447 406.924 103.656 406.633 102.741C406.341 101.826 406.05 100.837 405.759 99.7764ZM468.398 98.9121C467.658 99.1742 467.023 99.5248 466.492 99.9639C465.91 100.463 465.473 101.066 465.182 101.773C464.89 102.46 464.744 103.22 464.744 104.052C464.744 105.112 465.036 105.996 465.618 106.703C466.222 107.41 467.013 108.013 467.991 108.513C468.124 108.581 468.26 108.647 468.398 108.713V98.9121Z"/>
</mask>
<path d="M468.398 87.7539C468.399 85.6845 471.696 86.9102 473.04 87.4961C473.388 87.6477 473.6 87.9888 473.6 88.3682C473.598 89.4282 473.598 90.5122 473.597 91.6152C475.53 91.7693 477.344 92.1602 479.04 92.7881C481.287 93.6201 483.202 94.7847 484.783 96.2822L482.692 100.245C482.443 100.682 482.172 101.004 481.881 101.212C481.61 101.399 481.267 101.493 480.851 101.493C480.414 101.493 479.935 101.336 479.415 101.024C478.916 100.692 478.312 100.328 477.604 99.9326C476.897 99.5374 476.065 99.1841 475.107 98.8721C474.645 98.7077 474.139 98.5842 473.591 98.501C473.588 102.499 473.587 106.599 473.587 110.594C474.109 110.769 474.637 110.948 475.17 111.134C476.481 111.571 477.76 112.09 479.009 112.693C480.257 113.276 481.371 114.025 482.349 114.94C483.327 115.835 484.108 116.937 484.69 118.247C485.294 119.557 485.595 121.149 485.595 123.021C485.595 125.06 485.242 126.973 484.534 128.762C483.847 130.53 482.827 132.08 481.475 133.411C480.143 134.721 478.509 135.762 476.574 136.531C475.647 136.89 474.655 137.161 473.599 137.348C473.599 138.516 473.601 139.342 473.601 139.755C473.601 142.396 470.166 140.745 468.878 140.033C468.576 139.866 468.398 139.546 468.398 139.201V137.598C467.484 137.531 466.578 137.405 465.681 137.218C464.287 136.947 462.944 136.552 461.654 136.032C460.385 135.512 459.188 134.888 458.064 134.16C457.236 133.623 456.477 133.04 455.784 132.413V137.155H429.347V92.0391H437.743V130.229H455.784V130.558L457.534 127.701C457.742 127.41 458.013 127.171 458.346 126.983C458.679 126.775 459.033 126.672 459.407 126.672C459.927 126.672 460.489 126.89 461.093 127.327C461.696 127.743 462.414 128.211 463.246 128.73C464.078 129.25 465.047 129.729 466.149 130.166C466.821 130.415 467.571 130.587 468.398 130.687V117.314C468.035 117.201 467.67 117.087 467.304 116.969C466.014 116.553 464.745 116.053 463.496 115.471C462.248 114.888 461.134 114.129 460.156 113.193C459.178 112.257 458.388 111.092 457.784 109.698C457.202 108.284 456.91 106.547 456.91 104.488C456.91 102.845 457.233 101.244 457.878 99.6836C458.544 98.1236 459.5 96.7396 460.749 95.5332C461.998 94.3268 463.538 93.3598 465.369 92.6318C466.308 92.2587 467.318 91.9807 468.398 91.7988V87.7539ZM355.224 91.54C358.511 91.54 361.425 92.0805 363.964 93.1621C366.523 94.2437 368.698 95.6581 370.487 97.4053L367.679 101.306C367.512 101.555 367.293 101.774 367.022 101.961C366.773 102.148 366.419 102.241 365.962 102.241C365.65 102.241 365.327 102.158 364.994 101.992C364.661 101.805 364.297 101.587 363.901 101.337C363.506 101.067 363.049 100.775 362.528 100.463C362.008 100.151 361.404 99.8707 360.718 99.6211C360.031 99.3507 359.23 99.1322 358.314 98.9658C357.42 98.7786 356.378 98.6846 355.192 98.6846C353.174 98.6846 351.322 99.0484 349.637 99.7764C347.972 100.484 346.536 101.524 345.329 102.896C344.122 104.248 343.186 105.913 342.521 107.889C341.855 109.844 341.522 112.08 341.521 114.597C341.521 117.134 341.876 119.391 342.583 121.367C343.311 123.343 344.289 125.007 345.517 126.359C346.744 127.711 348.191 128.751 349.855 129.479C351.52 130.187 353.309 130.54 355.224 130.54C356.368 130.54 357.399 130.478 358.314 130.354C359.251 130.229 360.104 130.031 360.874 129.761C361.665 129.49 362.403 129.146 363.09 128.73C363.797 128.294 364.494 127.764 365.181 127.14C365.389 126.952 365.608 126.807 365.837 126.703C366.066 126.578 366.305 126.516 366.555 126.516C367.012 126.516 367.418 126.693 367.771 127.046L371.08 130.634C369.249 132.901 366.992 134.638 364.308 135.845C361.644 137.051 358.439 137.654 354.693 137.654C351.343 137.654 348.326 137.082 345.642 135.938C342.978 134.794 340.699 133.202 338.806 131.164C336.912 129.126 335.455 126.692 334.436 123.863C333.437 121.035 332.938 117.945 332.938 114.597C332.938 111.206 333.479 108.107 334.561 105.299C335.643 102.47 337.162 100.036 339.118 97.998C341.095 95.9598 343.446 94.379 346.172 93.2559C348.898 92.1119 351.915 91.5401 355.224 91.54ZM182.451 85.9033H159.894V103.708H182.451L178.372 112.652H159.894V137.155H148.657V77H186.612L182.451 85.9033ZM198.393 137.155H189.966V92.0391H198.393V137.155ZM209.778 92.0391C210.132 92.0391 210.434 92.06 210.684 92.1016C210.954 92.1224 211.183 92.1851 211.37 92.2891C211.578 92.3723 211.776 92.5072 211.963 92.6943C212.15 92.8607 212.359 93.0897 212.588 93.3809L236.247 123.583C236.185 122.855 236.132 122.137 236.091 121.43C236.049 120.723 236.028 120.067 236.028 119.464V92.0391H243.427V137.155H239.119C238.453 137.155 237.891 137.051 237.434 136.843C236.997 136.614 236.57 136.24 236.153 135.72L212.588 105.643C212.713 107.015 212.774 108.284 212.774 109.449V137.155H205.377V92.0391H209.778ZM289.03 137.155H282.537C281.809 137.155 281.216 136.979 280.758 136.625C280.3 136.251 279.957 135.793 279.729 135.252L276.357 126.048H257.66L254.289 135.252C254.123 135.73 253.8 136.167 253.321 136.562C252.843 136.958 252.249 137.155 251.542 137.155H244.987L262.748 92.0391H271.301L289.03 137.155ZM294.981 92.0391C295.335 92.0391 295.637 92.06 295.887 92.1016C296.157 92.1224 296.386 92.1851 296.573 92.2891C296.781 92.3722 296.979 92.5072 297.166 92.6943C297.353 92.8607 297.562 93.0897 297.791 93.3809L321.45 123.583C321.388 122.855 321.336 122.137 321.294 121.43C321.252 120.723 321.232 120.067 321.232 119.464V92.0391H328.63V137.155H324.322C323.656 137.155 323.095 137.051 322.637 136.843C322.2 136.614 321.773 136.24 321.356 135.72L297.791 105.643C297.916 107.015 297.978 108.284 297.978 109.449V137.155H290.58V92.0391H294.981ZM382.139 137.155H373.711V92.0391H382.139V137.155ZM427.796 137.155H421.304C420.576 137.155 419.982 136.978 419.524 136.625C419.067 136.251 418.723 135.793 418.494 135.252L415.123 126.048H396.427L393.056 135.252C392.889 135.73 392.566 136.167 392.088 136.562C391.609 136.958 391.016 137.155 390.309 137.155H383.754L401.515 92.0391H410.066L427.796 137.155ZM473.588 119.012C473.589 123.194 473.593 127.052 473.595 130.291C474.42 130.012 475.132 129.619 475.731 129.105C477.042 127.961 477.698 126.329 477.698 124.207C477.698 123.021 477.396 122.053 476.793 121.305C476.21 120.556 475.43 119.933 474.452 119.434C474.175 119.286 473.887 119.146 473.588 119.012ZM266.993 99.7764C266.723 100.837 266.442 101.836 266.15 102.772C265.859 103.688 265.578 104.488 265.308 105.175L259.845 120.119H274.203L268.71 105.112C268.439 104.447 268.158 103.656 267.867 102.741C267.576 101.826 267.284 100.837 266.993 99.7764ZM405.759 99.7764C405.488 100.837 405.207 101.836 404.916 102.772C404.625 103.687 404.344 104.489 404.073 105.175L398.611 120.119H412.97L407.476 105.112C407.205 104.447 406.924 103.656 406.633 102.741C406.341 101.826 406.05 100.837 405.759 99.7764ZM468.398 98.9121C467.658 99.1742 467.023 99.5248 466.492 99.9639C465.91 100.463 465.473 101.066 465.182 101.773C464.89 102.46 464.744 103.22 464.744 104.052C464.744 105.112 465.036 105.996 465.618 106.703C466.222 107.41 467.013 108.013 467.991 108.513C468.124 108.581 468.26 108.647 468.398 108.713V98.9121Z" fill="#000080"/>
<path d="M468.398 87.7539L467.398 87.7537V87.7539H468.398ZM473.04 87.4961L473.44 86.5794V86.5794L473.04 87.4961ZM473.6 88.3682L472.6 88.3667L473.6 88.3682ZM473.597 91.6152L472.597 91.6141L472.596 92.5386L473.517 92.6121L473.597 91.6152ZM479.04 92.7881L479.387 91.8503L479.387 91.8503L479.04 92.7881ZM484.783 96.2822L485.668 96.7489L486.022 96.0778L485.471 95.5561L484.783 96.2822ZM482.692 100.245L483.561 100.741L483.569 100.727L483.577 100.712L482.692 100.245ZM481.881 101.212L482.45 102.034L482.456 102.03L482.462 102.026L481.881 101.212ZM480.851 101.493L480.851 102.493H480.851V101.493ZM479.415 101.024L478.861 101.857L478.88 101.87L478.901 101.882L479.415 101.024ZM477.604 99.9326L478.092 99.0596V99.0596L477.604 99.9326ZM475.107 98.8721L474.773 99.8143L474.785 99.8187L474.798 99.8228L475.107 98.8721ZM473.591 98.501L473.741 97.5123L472.591 97.338L472.591 98.5004L473.591 98.501ZM473.587 110.594L472.587 110.594L472.587 111.313L473.268 111.542L473.587 110.594ZM475.17 111.134L474.84 112.078L474.847 112.08L474.854 112.083L475.17 111.134ZM479.009 112.693L478.574 113.594L478.586 113.6L479.009 112.693ZM482.349 114.94L481.665 115.671L481.674 115.678L482.349 114.94ZM484.69 118.247L483.777 118.653L483.782 118.665L484.69 118.247ZM485.595 123.021L486.595 123.021V123.021H485.595ZM484.534 128.762L483.604 128.394L483.602 128.4L484.534 128.762ZM481.475 133.411L482.176 134.124L482.176 134.124L481.475 133.411ZM476.574 136.531L476.935 137.464L476.944 137.46L476.574 136.531ZM473.599 137.348L473.424 136.363L472.598 136.509L472.599 137.348L473.599 137.348ZM473.601 139.755H474.601H473.601ZM468.878 140.033L468.394 140.908V140.908L468.878 140.033ZM468.398 139.201H467.398V139.201L468.398 139.201ZM468.398 137.598H469.398V136.668L468.471 136.6L468.398 137.598ZM465.681 137.218L465.885 136.239L465.878 136.237L465.871 136.236L465.681 137.218ZM461.654 136.032L461.275 136.958L461.28 136.96L461.654 136.032ZM458.064 134.16L457.521 134.999V134.999L458.064 134.16ZM455.784 132.413L456.455 131.672L454.784 130.159V132.413H455.784ZM455.784 137.155V138.155H456.784V137.155H455.784ZM429.347 137.155H428.347V138.155H429.347V137.155ZM429.347 92.0391V91.0391H428.347V92.0391H429.347ZM437.743 92.0391H438.743V91.0391H437.743V92.0391ZM437.743 130.229H436.743V131.229H437.743V130.229ZM455.784 130.229H456.784V129.229H455.784V130.229ZM455.784 130.558H454.784V134.104L456.637 131.08L455.784 130.558ZM457.534 127.701L456.721 127.12L456.7 127.149L456.681 127.179L457.534 127.701ZM458.346 126.983L458.836 127.855L458.856 127.844L458.876 127.832L458.346 126.983ZM459.407 126.672L459.407 125.672H459.407V126.672ZM461.093 127.327L460.506 128.137L460.516 128.144L460.525 128.15L461.093 127.327ZM463.246 128.73L462.716 129.579V129.579L463.246 128.73ZM466.149 130.166L465.781 131.096L465.792 131.1L465.802 131.104L466.149 130.166ZM468.398 130.687L468.278 131.679L469.398 131.815V130.687H468.398ZM468.398 117.314H469.398V116.579L468.696 116.36L468.398 117.314ZM467.304 116.969L466.997 117.92V117.92L467.304 116.969ZM463.496 115.471L463.073 116.377V116.377L463.496 115.471ZM460.156 113.193L459.465 113.916V113.916L460.156 113.193ZM457.784 109.698L456.86 110.079L456.863 110.087L456.867 110.096L457.784 109.698ZM456.91 104.488H455.91V104.488L456.91 104.488ZM457.878 99.6836L456.958 99.291L456.954 99.3015L457.878 99.6836ZM460.749 95.5332L460.054 94.8141L460.054 94.8141L460.749 95.5332ZM465.369 92.6318L465 91.7026L465 91.7026L465.369 92.6318ZM468.398 91.7988L468.564 92.785L469.398 92.6446V91.7988H468.398ZM355.224 91.54V90.54H355.224L355.224 91.54ZM363.964 93.1621L363.572 94.0821L363.575 94.0832L363.964 93.1621ZM370.487 97.4053L371.299 97.9896L371.802 97.2911L371.186 96.6897L370.487 97.4053ZM367.679 101.306L366.867 100.721L366.857 100.736L366.847 100.751L367.679 101.306ZM367.022 101.961L366.453 101.139L366.438 101.149L366.423 101.161L367.022 101.961ZM365.962 102.241V103.241H365.962L365.962 102.241ZM364.994 101.992L364.504 102.864L364.525 102.876L364.547 102.887L364.994 101.992ZM363.901 101.337L363.337 102.162L363.352 102.173L363.368 102.183L363.901 101.337ZM362.528 100.463L363.043 99.6053V99.6053L362.528 100.463ZM360.718 99.6211L360.351 100.552L360.364 100.556L360.376 100.561L360.718 99.6211ZM358.314 98.9658L358.11 99.9446L358.123 99.9473L358.136 99.9497L358.314 98.9658ZM355.192 98.6846V97.6846H355.192L355.192 98.6846ZM349.637 99.7764L350.028 100.697L350.033 100.694L349.637 99.7764ZM345.329 102.896L346.075 103.562L346.08 103.557L345.329 102.896ZM342.521 107.889L343.467 108.211L343.468 108.208L342.521 107.889ZM341.521 114.597L340.521 114.597V114.597H341.521ZM342.583 121.367L341.641 121.704L341.645 121.713L342.583 121.367ZM345.517 126.359L344.776 127.032L344.776 127.032L345.517 126.359ZM349.855 129.479L349.455 130.396L349.464 130.4L349.855 129.479ZM355.224 130.54L355.224 131.54H355.224V130.54ZM358.314 130.354L358.182 129.362L358.179 129.363L358.314 130.354ZM360.874 129.761L360.55 128.815L360.543 128.817L360.874 129.761ZM363.09 128.73L363.608 129.586L363.615 129.581L363.09 128.73ZM365.181 127.14L364.512 126.396L364.508 126.4L365.181 127.14ZM365.837 126.703L366.251 127.614L366.284 127.599L366.316 127.581L365.837 126.703ZM366.555 126.516L366.555 125.516H366.555V126.516ZM367.771 127.046L368.507 126.368L368.493 126.353L368.478 126.339L367.771 127.046ZM371.08 130.634L371.858 131.262L372.4 130.591L371.815 129.956L371.08 130.634ZM364.308 135.845L363.898 134.933L363.895 134.934L364.308 135.845ZM354.693 137.654V138.654V137.654ZM345.642 135.938L345.247 136.857L345.25 136.858L345.642 135.938ZM338.806 131.164L338.073 131.845L338.073 131.845L338.806 131.164ZM334.436 123.863L333.493 124.196L333.495 124.202L334.436 123.863ZM332.938 114.597L331.938 114.597V114.597H332.938ZM334.561 105.299L335.494 105.658L335.495 105.656L334.561 105.299ZM339.118 97.998L338.4 97.3018L338.397 97.3057L339.118 97.998ZM346.172 93.2559L346.553 94.1805L346.559 94.1779L346.172 93.2559ZM182.451 85.9033V86.9033H183.088L183.357 86.3267L182.451 85.9033ZM159.894 85.9033V84.9033H158.894V85.9033H159.894ZM159.894 103.708H158.894V104.708H159.894V103.708ZM182.451 103.708L183.361 104.123L184.006 102.708H182.451V103.708ZM178.372 112.652V113.652H179.015L179.282 113.067L178.372 112.652ZM159.894 112.652V111.652H158.894V112.652H159.894ZM159.894 137.155V138.155H160.894V137.155H159.894ZM148.657 137.155H147.657V138.155H148.657V137.155ZM148.657 77V76H147.657V77H148.657ZM186.612 77L187.518 77.4234L188.183 76H186.612V77ZM198.393 137.155V138.155H199.393V137.155H198.393ZM189.966 137.155H188.966V138.155H189.966V137.155ZM189.966 92.0391V91.0391H188.966V92.0391H189.966ZM198.393 92.0391H199.393V91.0391H198.393V92.0391ZM209.778 92.0391L209.778 91.0391H209.778V92.0391ZM210.684 92.1016L210.519 93.088L210.563 93.0952L210.607 93.0986L210.684 92.1016ZM211.37 92.2891L210.885 93.1633L210.94 93.194L210.999 93.2176L211.37 92.2891ZM211.963 92.6943L211.256 93.4016L211.277 93.4224L211.299 93.4419L211.963 92.6943ZM212.588 93.3809L213.375 92.7642L213.374 92.7629L212.588 93.3809ZM236.247 123.583L235.46 124.2L237.53 126.843L237.243 123.498L236.247 123.583ZM236.091 121.43L235.093 121.488V121.488L236.091 121.43ZM236.028 92.0391V91.0391H235.028V92.0391H236.028ZM243.427 92.0391H244.427V91.0391H243.427V92.0391ZM243.427 137.155V138.155H244.427V137.155H243.427ZM237.434 136.843L236.97 137.729L236.995 137.742L237.02 137.753L237.434 136.843ZM236.153 135.72L235.366 136.337L235.373 136.345L236.153 135.72ZM212.588 105.643L213.375 105.026L211.285 102.358L211.592 105.733L212.588 105.643ZM212.774 137.155V138.155H213.774V137.155H212.774ZM205.377 137.155H204.377V138.155H205.377V137.155ZM205.377 92.0391V91.0391H204.377V92.0391H205.377ZM289.03 137.155V138.155H290.498L289.961 136.79L289.03 137.155ZM282.537 137.155L282.537 138.155H282.537V137.155ZM280.758 136.625L280.125 137.399L280.135 137.408L280.147 137.416L280.758 136.625ZM279.729 135.252L278.79 135.596L278.798 135.619L278.808 135.642L279.729 135.252ZM276.357 126.048L277.296 125.704L277.056 125.048H276.357V126.048ZM257.66 126.048V125.048H256.961L256.721 125.704L257.66 126.048ZM254.289 135.252L253.35 134.908L253.347 134.916L253.345 134.923L254.289 135.252ZM253.321 136.562L253.958 137.334L253.958 137.334L253.321 136.562ZM244.987 137.155L244.057 136.789L243.519 138.155H244.987V137.155ZM262.748 92.0391V91.0391H262.067L261.818 91.6728L262.748 92.0391ZM271.301 92.0391L272.231 91.6733L271.982 91.0391H271.301V92.0391ZM294.981 92.0391V91.0391V92.0391ZM295.887 92.1016L295.722 93.088L295.766 93.0952L295.81 93.0986L295.887 92.1016ZM296.573 92.2891L296.088 93.1633L296.143 93.1941L296.202 93.2176L296.573 92.2891ZM297.166 92.6943L296.459 93.4017L296.48 93.4224L296.502 93.4419L297.166 92.6943ZM297.791 93.3809L298.578 92.7642L298.577 92.7629L297.791 93.3809ZM321.45 123.583L320.663 124.2L322.733 126.843L322.447 123.498L321.45 123.583ZM321.294 121.43L320.296 121.488V121.488L321.294 121.43ZM321.232 92.0391V91.0391H320.232V92.0391H321.232ZM328.63 92.0391H329.63V91.0391H328.63V92.0391ZM328.63 137.155V138.155H329.63V137.155H328.63ZM322.637 136.843L322.173 137.729L322.198 137.742L322.223 137.753L322.637 136.843ZM321.356 135.72L320.569 136.337L320.576 136.345L321.356 135.72ZM297.791 105.643L298.578 105.026L296.488 102.358L296.795 105.733L297.791 105.643ZM297.978 137.155V138.155H298.978V137.155H297.978ZM290.58 137.155H289.58V138.155H290.58V137.155ZM290.58 92.0391V91.0391H289.58V92.0391H290.58ZM382.139 137.155V138.155H383.139V137.155H382.139ZM373.711 137.155H372.711V138.155H373.711V137.155ZM373.711 92.0391V91.0391H372.711V92.0391H373.711ZM382.139 92.0391H383.139V91.0391H382.139V92.0391ZM427.796 137.155V138.155H429.263L428.727 136.79L427.796 137.155ZM419.524 136.625L418.891 137.399L418.902 137.408L418.913 137.416L419.524 136.625ZM418.494 135.252L417.555 135.596L417.564 135.619L417.573 135.642L418.494 135.252ZM415.123 126.048L416.062 125.704L415.822 125.048H415.123V126.048ZM396.427 126.048V125.048H395.728L395.488 125.704L396.427 126.048ZM393.056 135.252L392.117 134.908L392.114 134.916L392.111 134.923L393.056 135.252ZM392.088 136.562L392.725 137.334V137.334L392.088 136.562ZM390.309 137.155V138.155H390.309L390.309 137.155ZM383.754 137.155L382.823 136.789L382.286 138.155H383.754V137.155ZM401.515 92.0391V91.0391H400.834L400.584 91.6728L401.515 92.0391ZM410.066 92.0391L410.997 91.6733L410.748 91.0391H410.066V92.0391ZM473.588 119.012L473.997 118.099L472.587 117.467L472.588 119.012L473.588 119.012ZM473.595 130.291L472.595 130.292L472.596 131.684L473.915 131.238L473.595 130.291ZM475.731 129.105L476.382 129.865L476.389 129.859L475.731 129.105ZM477.698 124.207L478.698 124.207V124.207H477.698ZM476.793 121.305L476.004 121.919L476.009 121.926L476.014 121.932L476.793 121.305ZM474.452 119.434L473.983 120.317L473.99 120.32L473.997 120.324L474.452 119.434ZM266.993 99.7764L267.957 99.5115L266.957 95.8698L266.024 99.5293L266.993 99.7764ZM266.15 102.772L267.103 103.076L267.105 103.07L266.15 102.772ZM265.308 105.175L264.377 104.808L264.373 104.82L264.368 104.831L265.308 105.175ZM259.845 120.119L258.906 119.776L258.414 121.119H259.845V120.119ZM274.203 120.119V121.119H275.634L275.142 119.775L274.203 120.119ZM268.71 105.112L269.649 104.769L269.643 104.752L269.636 104.736L268.71 105.112ZM267.867 102.741L266.914 103.045V103.045L267.867 102.741ZM405.759 99.7764L406.723 99.5115L405.723 95.8698L404.79 99.5293L405.759 99.7764ZM404.916 102.772L405.869 103.076L405.871 103.07L404.916 102.772ZM404.073 105.175L403.143 104.808L403.138 104.82L403.134 104.832L404.073 105.175ZM398.611 120.119L397.672 119.776L397.181 121.119H398.611V120.119ZM412.97 120.119V121.119H414.401L413.909 119.775L412.97 120.119ZM407.476 105.112L408.415 104.769L408.409 104.752L408.402 104.736L407.476 105.112ZM406.633 102.741L405.68 103.045V103.045L406.633 102.741ZM468.398 98.9121H469.398V97.4971L468.065 97.9695L468.398 98.9121ZM466.492 99.9639L465.855 99.1933L465.848 99.1989L465.842 99.2045L466.492 99.9639ZM465.182 101.773L466.102 102.164L466.106 102.154L465.182 101.773ZM464.744 104.052H463.744V104.052L464.744 104.052ZM465.618 106.703L464.846 107.339L464.852 107.346L464.857 107.352L465.618 106.703ZM467.991 108.513L467.537 109.403V109.403L467.991 108.513ZM468.398 108.713L467.967 109.615L469.398 110.299V108.713H468.398ZM468.398 87.7539L469.398 87.7541C469.398 87.6275 469.423 87.5994 469.412 87.6186C469.398 87.6443 469.377 87.6551 469.386 87.6506C469.448 87.6195 469.658 87.5688 470.094 87.6219C470.932 87.7241 471.979 88.1244 472.641 88.4128L473.04 87.4961L473.44 86.5794C472.757 86.282 471.483 85.7765 470.336 85.6366C469.78 85.5688 469.082 85.563 468.484 85.8658C468.162 86.0282 467.874 86.2782 467.673 86.6307C467.477 86.9766 467.399 87.3629 467.398 87.7537L468.398 87.7539ZM473.04 87.4961L472.641 88.4128C472.635 88.4105 472.629 88.4066 472.622 88.4009C472.615 88.3953 472.61 88.3892 472.607 88.3835C472.599 88.3718 472.6 88.3647 472.6 88.3667L473.6 88.3682L474.6 88.3697C474.601 87.612 474.171 86.898 473.44 86.5794L473.04 87.4961ZM473.6 88.3682L472.6 88.3667C472.598 89.4261 472.598 90.5133 472.597 91.6141L473.597 91.6152L474.597 91.6164C474.598 90.5111 474.598 89.4302 474.6 88.3697L473.6 88.3682ZM473.597 91.6152L473.517 92.6121C475.365 92.7593 477.089 93.1321 478.693 93.7259L479.04 92.7881L479.387 91.8503C477.599 91.1883 475.694 90.7792 473.676 90.6184L473.597 91.6152ZM479.04 92.7881L478.693 93.7259C480.826 94.5157 482.622 95.6126 484.096 97.0083L484.783 96.2822L485.471 95.5561C483.782 93.9569 481.748 92.7244 479.387 91.8503L479.04 92.7881ZM484.783 96.2822L483.899 95.8156L481.808 99.7785L482.692 100.245L483.577 100.712L485.668 96.7489L484.783 96.2822ZM482.692 100.245L481.824 99.7488C481.619 100.107 481.436 100.301 481.3 100.398L481.881 101.212L482.462 102.026C482.908 101.707 483.266 101.256 483.561 100.741L482.692 100.245ZM481.881 101.212L481.312 100.39C481.247 100.434 481.117 100.493 480.851 100.493V101.493V102.493C481.417 102.493 481.973 102.364 482.45 102.034L481.881 101.212ZM480.851 101.493L480.851 100.493C480.653 100.493 480.353 100.421 479.929 100.167L479.415 101.024L478.901 101.882C479.518 102.252 480.174 102.493 480.851 102.493L480.851 101.493ZM479.415 101.024L479.97 100.192C479.442 99.8409 478.815 99.4633 478.092 99.0596L477.604 99.9326L477.117 100.806C477.809 101.192 478.389 101.542 478.861 101.857L479.415 101.024ZM477.604 99.9326L478.092 99.0596C477.316 98.6262 476.422 98.2487 475.417 97.9213L475.107 98.8721L474.798 99.8228C475.707 100.119 476.478 100.449 477.117 100.806L477.604 99.9326ZM475.107 98.8721L475.442 97.9298C474.912 97.7415 474.344 97.6038 473.741 97.5123L473.591 98.501L473.441 99.4897C473.935 99.5646 474.378 99.674 474.773 99.8143L475.107 98.8721ZM473.591 98.501L472.591 98.5004C472.588 102.498 472.587 106.599 472.587 110.594L473.587 110.594L474.587 110.594C474.587 106.6 474.588 102.499 474.591 98.5016L473.591 98.501ZM473.587 110.594L473.268 111.542C473.79 111.717 474.314 111.894 474.84 112.078L475.17 111.134L475.499 110.19C474.961 110.002 474.428 109.822 473.906 109.646L473.587 110.594ZM475.17 111.134L474.854 112.083C476.124 112.506 477.364 113.009 478.574 113.594L479.009 112.693L479.444 111.793C478.157 111.171 476.837 110.635 475.486 110.185L475.17 111.134ZM479.009 112.693L478.586 113.6C479.741 114.139 480.766 114.829 481.665 115.671L482.349 114.94L483.032 114.21C481.975 113.221 480.773 112.413 479.432 111.787L479.009 112.693ZM482.349 114.94L481.674 115.678C482.542 116.473 483.246 117.459 483.777 118.653L484.69 118.247L485.604 117.841C484.97 116.415 484.111 115.197 483.023 114.202L482.349 114.94ZM484.69 118.247L483.782 118.665C484.31 119.811 484.595 121.252 484.595 123.021H485.595H486.595C486.595 121.047 486.278 119.304 485.599 117.829L484.69 118.247ZM485.595 123.021L484.595 123.021C484.595 124.942 484.263 126.729 483.604 128.394L484.534 128.762L485.464 129.129C486.221 127.217 486.595 125.178 486.595 123.021L485.595 123.021ZM484.534 128.762L483.602 128.4C482.967 130.036 482.025 131.466 480.773 132.698L481.475 133.411L482.176 134.124C483.629 132.693 484.728 131.024 485.466 129.124L484.534 128.762ZM481.475 133.411L480.773 132.698C479.547 133.905 478.03 134.876 476.205 135.602L476.574 136.531L476.944 137.46C478.989 136.647 480.739 135.538 482.176 134.124L481.475 133.411ZM476.574 136.531L476.213 135.599C475.352 135.932 474.423 136.186 473.424 136.363L473.599 137.348L473.773 138.332C474.886 138.135 475.942 137.848 476.935 137.464L476.574 136.531ZM473.599 137.348L472.599 137.348C472.599 138.518 472.601 139.342 472.601 139.755H473.601H474.601C474.601 139.342 474.599 138.514 474.599 137.347L473.599 137.348ZM473.601 139.755H472.601C472.601 139.981 472.563 140.091 472.545 140.131C472.54 140.14 472.536 140.146 472.534 140.15C472.533 140.151 472.533 140.152 472.532 140.153C472.532 140.154 472.531 140.154 472.531 140.154C472.531 140.154 472.531 140.154 472.531 140.154C472.532 140.154 472.532 140.153 472.532 140.153C472.532 140.153 472.531 140.154 472.529 140.155C472.496 140.175 472.32 140.238 471.888 140.165C471.05 140.024 469.999 139.51 469.362 139.158L468.878 140.033L468.394 140.908C469.044 141.268 470.354 141.935 471.556 142.137C472.143 142.236 472.908 142.261 473.559 141.87C474.296 141.427 474.601 140.639 474.601 139.755H473.601ZM468.878 140.033L469.362 139.158C469.377 139.167 469.388 139.179 469.394 139.189C469.399 139.197 469.398 139.202 469.398 139.201L468.398 139.201L467.398 139.201C467.398 139.887 467.754 140.555 468.394 140.908L468.878 140.033ZM468.398 139.201H469.398V137.598H468.398H467.398V139.201H468.398ZM468.398 137.598L468.471 136.6C467.6 136.537 466.738 136.417 465.885 136.239L465.681 137.218L465.476 138.197C466.418 138.393 467.368 138.525 468.326 138.595L468.398 137.598ZM465.681 137.218L465.871 136.236C464.538 135.978 463.258 135.6 462.028 135.105L461.654 136.032L461.28 136.96C462.631 137.504 464.035 137.917 465.49 138.199L465.681 137.218ZM461.654 136.032L462.033 135.107C460.82 134.61 459.678 134.014 458.608 133.321L458.064 134.16L457.521 134.999C458.698 135.762 459.95 136.415 461.275 136.958L461.654 136.032ZM458.064 134.16L458.608 133.321C457.823 132.813 457.107 132.262 456.455 131.672L455.784 132.413L455.113 133.154C455.847 133.819 456.649 134.434 457.521 134.999L458.064 134.16ZM455.784 132.413H454.784V137.155H455.784H456.784V132.413H455.784ZM455.784 137.155V136.155H429.347V137.155V138.155H455.784V137.155ZM429.347 137.155H430.347V92.0391H429.347H428.347V137.155H429.347ZM429.347 92.0391V93.0391H437.743V92.0391V91.0391H429.347V92.0391ZM437.743 92.0391H436.743V130.229H437.743H438.743V92.0391H437.743ZM437.743 130.229V131.229H455.784V130.229V129.229H437.743V130.229ZM455.784 130.229H454.784V130.558H455.784H456.784V130.229H455.784ZM455.784 130.558L456.637 131.08L458.387 128.224L457.534 127.701L456.681 127.179L454.931 130.035L455.784 130.558ZM457.534 127.701L458.348 128.283C458.465 128.118 458.622 127.975 458.836 127.855L458.346 126.983L457.856 126.112C457.403 126.366 457.019 126.702 456.721 127.12L457.534 127.701ZM458.346 126.983L458.876 127.832C459.057 127.718 459.228 127.672 459.407 127.672V126.672V125.672C458.837 125.672 458.301 125.833 457.816 126.135L458.346 126.983ZM459.407 126.672L459.407 127.672C459.643 127.672 460.003 127.773 460.506 128.137L461.093 127.327L461.679 126.517C460.976 126.008 460.211 125.672 459.407 125.672L459.407 126.672ZM461.093 127.327L460.525 128.15C461.144 128.577 461.876 129.053 462.716 129.579L463.246 128.73L463.776 127.882C462.952 127.368 462.248 126.909 461.66 126.504L461.093 127.327ZM463.246 128.73L462.716 129.579C463.609 130.136 464.633 130.641 465.781 131.096L466.149 130.166L466.518 129.236C465.46 128.817 464.548 128.365 463.776 127.882L463.246 128.73ZM466.149 130.166L465.802 131.104C466.56 131.384 467.388 131.572 468.278 131.679L468.398 130.687L468.518 129.694C467.754 129.601 467.082 129.445 466.497 129.228L466.149 130.166ZM468.398 130.687H469.398V117.314H468.398H467.398V130.687H468.398ZM468.398 117.314L468.696 116.36C468.334 116.247 467.972 116.134 467.611 116.017L467.304 116.969L466.997 117.92C467.368 118.04 467.737 118.156 468.101 118.269L468.398 117.314ZM467.304 116.969L467.611 116.017C466.361 115.614 465.131 115.13 463.919 114.564L463.496 115.471L463.073 116.377C464.359 116.976 465.666 117.491 466.997 117.92L467.304 116.969ZM463.496 115.471L463.919 114.564C462.768 114.027 461.745 113.33 460.848 112.471L460.156 113.193L459.465 113.916C460.523 114.929 461.728 115.749 463.073 116.377L463.496 115.471ZM460.156 113.193L460.848 112.471C459.977 111.638 459.259 110.587 458.702 109.301L457.784 109.698L456.867 110.096C457.516 111.596 458.379 112.877 459.465 113.916L460.156 113.193ZM457.784 109.698L458.709 109.317C458.19 108.058 457.91 106.459 457.91 104.488L456.91 104.488L455.91 104.488C455.91 106.635 456.213 108.51 456.86 110.079L457.784 109.698ZM456.91 104.488H457.91C457.91 102.98 458.206 101.508 458.802 100.066L457.878 99.6836L456.954 99.3015C456.26 100.979 455.91 102.71 455.91 104.488H456.91ZM457.878 99.6836L458.798 100.076C459.41 98.6415 460.289 97.368 461.444 96.2523L460.749 95.5332L460.054 94.8141C458.712 96.1113 457.678 97.6056 456.958 99.291L457.878 99.6836ZM460.749 95.5332L461.444 96.2523C462.587 95.1481 464.012 94.2475 465.739 93.5611L465.369 92.6318L465 91.7026C463.064 92.4722 461.408 93.5056 460.054 94.8141L460.749 95.5332ZM465.369 92.6318L465.739 93.5611C466.607 93.216 467.548 92.956 468.564 92.785L468.398 91.7988L468.233 90.8127C467.088 91.0053 466.009 91.3013 465 91.7026L465.369 92.6318ZM468.398 91.7988H469.398V87.7539H468.398H467.398V91.7988H468.398ZM355.224 91.54V92.54C358.402 92.54 361.179 93.0624 363.572 94.0821L363.964 93.1621L364.356 92.2421C361.672 91.0986 358.621 90.54 355.224 90.54V91.54ZM363.964 93.1621L363.575 94.0832C366.032 95.1216 368.098 96.4701 369.789 98.1208L370.487 97.4053L371.186 96.6897C369.298 94.8462 367.015 93.3658 364.353 92.241L363.964 93.1621ZM370.487 97.4053L369.676 96.8209L366.867 100.721L367.679 101.306L368.49 101.89L371.299 97.9896L370.487 97.4053ZM367.679 101.306L366.847 100.751C366.757 100.885 366.631 101.016 366.453 101.139L367.022 101.961L367.592 102.783C367.955 102.532 368.267 102.226 368.511 101.861L367.679 101.306ZM367.022 101.961L366.423 101.161C366.411 101.17 366.301 101.241 365.962 101.241L365.962 102.241L365.962 103.241C366.538 103.241 367.135 103.126 367.622 102.761L367.022 101.961ZM365.962 102.241V101.241C365.831 101.241 365.661 101.207 365.441 101.098L364.994 101.992L364.547 102.887C364.993 103.11 365.469 103.241 365.962 103.241V102.241ZM364.994 101.992L365.484 101.121C365.169 100.943 364.819 100.734 364.435 100.491L363.901 101.337L363.368 102.183C363.774 102.439 364.154 102.667 364.504 102.864L364.994 101.992ZM363.901 101.337L364.466 100.511C364.051 100.228 363.576 99.9253 363.043 99.6053L362.528 100.463L362.014 101.32C362.521 101.624 362.961 101.905 363.337 102.162L363.901 101.337ZM362.528 100.463L363.043 99.6053C362.457 99.2543 361.794 98.9482 361.059 98.6813L360.718 99.6211L360.376 100.561C361.015 100.793 361.559 101.048 362.014 101.32L362.528 100.463ZM360.718 99.6211L361.084 98.6906C360.324 98.3912 359.457 98.1571 358.493 97.9819L358.314 98.9658L358.136 99.9497C359.003 100.107 359.739 100.31 360.351 100.552L360.718 99.6211ZM358.314 98.9658L358.519 97.987C357.541 97.7823 356.428 97.6846 355.192 97.6846V98.6846V99.6846C356.329 99.6846 357.298 99.7749 358.11 99.9446L358.314 98.9658ZM355.192 98.6846L355.192 97.6846C353.051 97.6846 351.063 98.0712 349.24 98.8583L349.637 99.7764L350.033 100.694C351.581 100.026 353.297 99.6846 355.192 99.6846L355.192 98.6846ZM349.637 99.7764L349.246 98.856C347.442 99.6224 345.883 100.752 344.578 102.236L345.329 102.896L346.08 103.557C347.189 102.295 348.503 101.345 350.028 100.697L349.637 99.7764ZM345.329 102.896L344.583 102.231C343.274 103.697 342.275 105.485 341.573 107.569L342.521 107.889L343.468 108.208C344.097 106.341 344.971 104.799 346.075 103.562L345.329 102.896ZM342.521 107.889L341.574 107.566C340.866 109.645 340.522 111.993 340.521 114.597L341.521 114.597L342.521 114.597C342.522 112.167 342.843 110.043 343.467 108.211L342.521 107.889ZM341.521 114.597H340.521C340.521 117.226 340.888 119.6 341.642 121.704L342.583 121.367L343.524 121.03C342.863 119.182 342.521 117.043 342.521 114.597H341.521ZM342.583 121.367L341.645 121.713C342.411 123.791 343.45 125.571 344.776 127.032L345.517 126.359L346.257 125.687C345.128 124.444 344.212 122.895 343.521 121.021L342.583 121.367ZM345.517 126.359L344.776 127.032C346.098 128.487 347.66 129.611 349.455 130.396L349.855 129.479L350.256 128.563C348.721 127.892 347.39 126.935 346.257 125.687L345.517 126.359ZM349.855 129.479L349.464 130.4C351.26 131.163 353.183 131.54 355.224 131.54L355.224 130.54L355.224 129.54C353.436 129.54 351.78 129.211 350.246 128.559L349.855 129.479ZM355.224 130.54V131.54C356.403 131.54 357.48 131.477 358.45 131.344L358.314 130.354L358.179 129.363C357.318 129.48 356.334 129.54 355.224 129.54V130.54ZM358.314 130.354L358.447 131.345C359.44 131.212 360.362 131.001 361.205 130.704L360.874 129.761L360.543 128.817C359.847 129.062 359.061 129.245 358.182 129.362L358.314 130.354ZM360.874 129.761L361.198 130.707C362.054 130.414 362.858 130.04 363.608 129.586L363.09 128.73L362.572 127.875C361.948 128.253 361.275 128.567 360.55 128.815L360.874 129.761ZM363.09 128.73L363.615 129.581C364.381 129.109 365.126 128.54 365.853 127.88L365.181 127.14L364.508 126.4C363.862 126.987 363.214 127.479 362.564 127.88L363.09 128.73ZM365.181 127.14L365.849 127.883C365.989 127.758 366.123 127.671 366.251 127.614L365.837 126.703L365.423 125.793C365.093 125.943 364.789 126.147 364.512 126.396L365.181 127.14ZM365.837 126.703L366.316 127.581C366.405 127.532 366.481 127.516 366.555 127.516V126.516V125.516C366.129 125.516 365.726 125.624 365.358 125.825L365.837 126.703ZM366.555 126.516L366.555 127.516C366.721 127.516 366.879 127.568 367.065 127.753L367.771 127.046L368.478 126.339C367.956 125.817 367.304 125.516 366.555 125.516L366.555 126.516ZM367.771 127.046L367.036 127.724L370.345 131.312L371.08 130.634L371.815 129.956L368.507 126.368L367.771 127.046ZM371.08 130.634L370.302 130.005C368.571 132.149 366.44 133.79 363.898 134.933L364.308 135.845L364.718 136.757C367.544 135.487 369.927 133.653 371.858 131.262L371.08 130.634ZM364.308 135.845L363.895 134.934C361.392 136.067 358.335 136.654 354.693 136.654V137.654V138.654C358.543 138.654 361.896 138.035 364.72 136.756L364.308 135.845ZM354.693 137.654V136.654C351.458 136.654 348.577 136.102 346.034 135.019L345.642 135.938L345.25 136.858C348.075 138.062 351.228 138.654 354.693 138.654V137.654ZM345.642 135.938L346.036 135.02C343.495 133.928 341.333 132.416 339.538 130.483L338.806 131.164L338.073 131.845C340.065 133.989 342.461 135.661 345.247 136.857L345.642 135.938ZM338.806 131.164L339.538 130.483C337.744 128.551 336.354 126.236 335.376 123.524L334.436 123.863L333.495 124.202C334.556 127.148 336.081 129.7 338.073 131.845L338.806 131.164ZM334.436 123.863L335.378 123.53C334.422 120.82 333.938 117.845 333.938 114.597H332.938H331.938C331.938 118.046 332.452 121.249 333.493 124.196L334.436 123.863ZM332.938 114.597L333.938 114.597C333.938 111.314 334.461 108.338 335.494 105.658L334.561 105.299L333.627 104.939C332.496 107.876 331.938 111.099 331.938 114.597L332.938 114.597ZM334.561 105.299L335.495 105.656C336.532 102.943 337.983 100.626 339.84 98.6904L339.118 97.998L338.397 97.3057C336.342 99.4471 334.753 101.997 333.627 104.942L334.561 105.299ZM339.118 97.998L339.836 98.6942C341.714 96.7582 343.949 95.2534 346.553 94.1804L346.172 93.2559L345.791 92.3313C342.943 93.5046 340.476 95.1614 338.4 97.3018L339.118 97.998ZM346.172 93.2559L346.559 94.1779C349.148 93.0912 352.032 92.5401 355.224 92.54L355.224 91.54L355.224 90.54C351.798 90.5401 348.647 91.1326 345.785 92.3338L346.172 93.2559ZM182.451 85.9033V84.9033H159.894V85.9033V86.9033H182.451V85.9033ZM159.894 85.9033H158.894V103.708H159.894H160.894V85.9033H159.894ZM159.894 103.708V104.708H182.451V103.708V102.708H159.894V103.708ZM182.451 103.708L181.541 103.293L177.462 112.237L178.372 112.652L179.282 113.067L183.361 104.123L182.451 103.708ZM178.372 112.652V111.652H159.894V112.652V113.652H178.372V112.652ZM159.894 112.652H158.894V137.155H159.894H160.894V112.652H159.894ZM159.894 137.155V136.155H148.657V137.155V138.155H159.894V137.155ZM148.657 137.155H149.657V77H148.657H147.657V137.155H148.657ZM148.657 77V78H186.612V77V76H148.657V77ZM186.612 77L185.706 76.5766L181.545 85.4799L182.451 85.9033L183.357 86.3267L187.518 77.4234L186.612 77ZM198.393 137.155V136.155H189.966V137.155V138.155H198.393V137.155ZM189.966 137.155H190.966V92.0391H189.966H188.966V137.155H189.966ZM189.966 92.0391V93.0391H198.393V92.0391V91.0391H189.966V92.0391ZM198.393 92.0391H197.393V137.155H198.393H199.393V92.0391H198.393ZM209.778 92.0391L209.778 93.0391C210.097 93.0391 210.34 93.0582 210.519 93.088L210.684 92.1016L210.848 91.1152C210.528 91.0618 210.167 91.0391 209.778 91.0391L209.778 92.0391ZM210.684 92.1016L210.607 93.0986C210.77 93.1112 210.851 93.1448 210.885 93.1633L211.37 92.2891L211.856 91.4148C211.514 91.2253 211.138 91.1336 210.76 91.1045L210.684 92.1016ZM211.37 92.2891L210.999 93.2176C211.061 93.2423 211.148 93.2934 211.256 93.4016L211.963 92.6943L212.67 91.987C212.404 91.7211 212.096 91.5022 211.741 91.3606L211.37 92.2891ZM211.963 92.6943L211.299 93.4419C211.427 93.5555 211.595 93.7354 211.802 93.9988L212.588 93.3809L213.374 92.7629C213.123 92.4439 212.874 92.166 212.627 91.9468L211.963 92.6943ZM212.588 93.3809L211.801 93.9975L235.46 124.2L236.247 123.583L237.034 122.966L213.375 92.7642L212.588 93.3809ZM236.247 123.583L237.243 123.498C237.182 122.778 237.13 122.069 237.089 121.371L236.091 121.43L235.093 121.488C235.135 122.205 235.188 122.932 235.251 123.668L236.247 123.583ZM236.091 121.43L237.089 121.371C237.048 120.68 237.028 120.044 237.028 119.464H236.028H235.028C235.028 120.09 235.05 120.765 235.093 121.488L236.091 121.43ZM236.028 119.464H237.028V92.0391H236.028H235.028V119.464H236.028ZM236.028 92.0391V93.0391H243.427V92.0391V91.0391H236.028V92.0391ZM243.427 92.0391H242.427V137.155H243.427H244.427V92.0391H243.427ZM243.427 137.155V136.155H239.119V137.155V138.155H243.427V137.155ZM239.119 137.155V136.155C238.553 136.155 238.141 136.066 237.847 135.932L237.434 136.843L237.02 137.753C237.642 138.036 238.354 138.155 239.119 138.155V137.155ZM237.434 136.843L237.897 135.957C237.617 135.81 237.292 135.542 236.934 135.095L236.153 135.72L235.373 136.345C235.847 136.937 236.376 137.418 236.97 137.729L237.434 136.843ZM236.153 135.72L236.94 135.103L213.375 105.026L212.588 105.643L211.801 106.259L235.366 136.336L236.153 135.72ZM212.588 105.643L211.592 105.733C211.715 107.081 211.774 108.319 211.774 109.449H212.774H213.774C213.774 108.25 213.711 106.95 213.584 105.552L212.588 105.643ZM212.774 109.449H211.774V137.155H212.774H213.774V109.449H212.774ZM212.774 137.155V136.155H205.377V137.155V138.155H212.774V137.155ZM205.377 137.155H206.377V92.0391H205.377H204.377V137.155H205.377ZM205.377 92.0391V93.0391H209.778V92.0391V91.0391H205.377V92.0391ZM289.03 137.155V136.155H282.537V137.155V138.155H289.03V137.155ZM282.537 137.155L282.537 136.155C281.972 136.155 281.61 136.02 281.369 135.834L280.758 136.625L280.147 137.416C280.821 137.937 281.646 138.155 282.537 138.155L282.537 137.155ZM280.758 136.625L281.391 135.851C281.059 135.579 280.815 135.253 280.649 134.862L279.729 135.252L278.808 135.642C279.1 136.332 279.542 136.922 280.125 137.399L280.758 136.625ZM279.729 135.252L280.668 134.908L277.296 125.704L276.357 126.048L275.418 126.392L278.79 135.596L279.729 135.252ZM276.357 126.048V125.048H257.66V126.048V127.048H276.357V126.048ZM257.66 126.048L256.721 125.704L253.35 134.908L254.289 135.252L255.228 135.596L258.599 126.392L257.66 126.048ZM254.289 135.252L253.345 134.923C253.251 135.194 253.054 135.487 252.685 135.791L253.321 136.562L253.958 137.334C254.546 136.848 254.995 136.267 255.233 135.581L254.289 135.252ZM253.321 136.562L252.685 135.791C252.41 136.018 252.051 136.155 251.542 136.155V137.155V138.155C252.447 138.155 253.275 137.897 253.958 137.334L253.321 136.562ZM251.542 137.155V136.155H244.987V137.155V138.155H251.542V137.155ZM244.987 137.155L245.918 137.522L263.679 92.4054L262.748 92.0391L261.818 91.6728L244.057 136.789L244.987 137.155ZM262.748 92.0391V93.0391H271.301V92.0391V91.0391H262.748V92.0391ZM271.301 92.0391L270.37 92.4048L288.1 137.521L289.03 137.155L289.961 136.79L272.231 91.6733L271.301 92.0391ZM294.981 92.0391V93.0391C295.3 93.0391 295.543 93.0582 295.722 93.088L295.887 92.1016L296.051 91.1152C295.731 91.0618 295.371 91.0391 294.981 91.0391V92.0391ZM295.887 92.1016L295.81 93.0986C295.973 93.1112 296.054 93.1448 296.088 93.1633L296.573 92.2891L297.059 91.4148C296.717 91.2253 296.341 91.1336 295.963 91.1045L295.887 92.1016ZM296.573 92.2891L296.202 93.2176C296.264 93.2423 296.351 93.2933 296.459 93.4017L297.166 92.6943L297.873 91.987C297.607 91.7211 297.299 91.5022 296.945 91.3606L296.573 92.2891ZM297.166 92.6943L296.502 93.4419C296.63 93.5555 296.798 93.7354 297.005 93.9988L297.791 93.3809L298.577 92.7629C298.326 92.4439 298.077 92.166 297.83 91.9468L297.166 92.6943ZM297.791 93.3809L297.004 93.9975L320.663 124.2L321.45 123.583L322.237 122.966L298.578 92.7642L297.791 93.3809ZM321.45 123.583L322.447 123.498C322.385 122.778 322.333 122.069 322.292 121.371L321.294 121.43L320.296 121.488C320.338 122.205 320.391 122.932 320.454 123.668L321.45 123.583ZM321.294 121.43L322.292 121.371C322.252 120.681 322.232 120.045 322.232 119.464H321.232H320.232C320.232 120.089 320.253 120.764 320.296 121.488L321.294 121.43ZM321.232 119.464H322.232V92.0391H321.232H320.232V119.464H321.232ZM321.232 92.0391V93.0391H328.63V92.0391V91.0391H321.232V92.0391ZM328.63 92.0391H327.63V137.155H328.63H329.63V92.0391H328.63ZM328.63 137.155V136.155H324.322V137.155V138.155H328.63V137.155ZM324.322 137.155V136.155C323.756 136.155 323.344 136.066 323.05 135.932L322.637 136.843L322.223 137.753C322.845 138.036 323.557 138.155 324.322 138.155V137.155ZM322.637 136.843L323.101 135.957C322.821 135.81 322.495 135.542 322.137 135.095L321.356 135.72L320.576 136.345C321.05 136.937 321.579 137.418 322.173 137.729L322.637 136.843ZM321.356 135.72L322.144 135.103L298.578 105.026L297.791 105.643L297.004 106.259L320.569 136.336L321.356 135.72ZM297.791 105.643L296.795 105.733C296.918 107.081 296.978 108.319 296.978 109.449H297.978H298.978C298.978 108.25 298.914 106.95 298.787 105.552L297.791 105.643ZM297.978 109.449H296.978V137.155H297.978H298.978V109.449H297.978ZM297.978 137.155V136.155H290.58V137.155V138.155H297.978V137.155ZM290.58 137.155H291.58V92.0391H290.58H289.58V137.155H290.58ZM290.58 92.0391V93.0391H294.981V92.0391V91.0391H290.58V92.0391ZM382.139 137.155V136.155H373.711V137.155V138.155H382.139V137.155ZM373.711 137.155H374.711V92.0391H373.711H372.711V137.155H373.711ZM373.711 92.0391V93.0391H382.139V92.0391V91.0391H373.711V92.0391ZM382.139 92.0391H381.139V137.155H382.139H383.139V92.0391H382.139ZM427.796 137.155V136.155H421.304V137.155V138.155H427.796V137.155ZM421.304 137.155V136.155C420.738 136.155 420.377 136.02 420.136 135.834L419.524 136.625L418.913 137.416C419.587 137.937 420.413 138.155 421.304 138.155V137.155ZM419.524 136.625L420.158 135.851C419.824 135.579 419.58 135.252 419.415 134.862L418.494 135.252L417.573 135.642C417.866 136.333 418.309 136.923 418.891 137.399L419.524 136.625ZM418.494 135.252L419.433 134.908L416.062 125.704L415.123 126.048L414.184 126.392L417.555 135.596L418.494 135.252ZM415.123 126.048V125.048H396.427V126.048V127.048H415.123V126.048ZM396.427 126.048L395.488 125.704L392.117 134.908L393.056 135.252L393.995 135.596L397.366 126.392L396.427 126.048ZM393.056 135.252L392.111 134.923C392.017 135.194 391.82 135.486 391.451 135.791L392.088 136.562L392.725 137.334C393.313 136.848 393.761 136.267 394 135.581L393.056 135.252ZM392.088 136.562L391.451 135.791C391.177 136.018 390.818 136.155 390.309 136.155L390.309 137.155L390.309 138.155C391.214 138.155 392.042 137.897 392.725 137.334L392.088 136.562ZM390.309 137.155V136.155H383.754V137.155V138.155H390.309V137.155ZM383.754 137.155L384.684 137.522L402.445 92.4054L401.515 92.0391L400.584 91.6728L382.823 136.789L383.754 137.155ZM401.515 92.0391V93.0391H410.066V92.0391V91.0391H401.515V92.0391ZM410.066 92.0391L409.136 92.4048L426.865 137.521L427.796 137.155L428.727 136.79L410.997 91.6733L410.066 92.0391ZM473.588 119.012L472.588 119.012C472.589 123.194 472.593 127.052 472.595 130.292L473.595 130.291L474.595 130.29C474.593 127.051 474.589 123.193 474.588 119.011L473.588 119.012ZM473.595 130.291L473.915 131.238C474.846 130.924 475.675 130.471 476.382 129.865L475.731 129.105L475.081 128.346C474.59 128.767 473.993 129.101 473.275 129.344L473.595 130.291ZM475.731 129.105L476.389 129.859C477.964 128.484 478.698 126.549 478.698 124.207L477.698 124.207L476.698 124.207C476.698 126.109 476.12 127.439 475.074 128.352L475.731 129.105ZM477.698 124.207H478.698C478.698 122.848 478.349 121.642 477.572 120.677L476.793 121.305L476.014 121.932C476.444 122.465 476.698 123.195 476.698 124.207H477.698ZM476.793 121.305L477.582 120.691C476.896 119.809 475.994 119.098 474.907 118.543L474.452 119.434L473.997 120.324C474.866 120.767 475.524 121.303 476.004 121.919L476.793 121.305ZM474.452 119.434L474.922 118.551C474.623 118.392 474.315 118.242 473.997 118.099L473.588 119.012L473.179 119.924C473.458 120.05 473.727 120.18 473.983 120.317L474.452 119.434ZM266.993 99.7764L266.024 99.5293C265.757 100.575 265.481 101.558 265.196 102.475L266.15 102.772L267.105 103.07C267.402 102.115 267.688 101.099 267.962 100.023L266.993 99.7764ZM266.15 102.772L265.198 102.469C264.911 103.369 264.638 104.148 264.377 104.808L265.308 105.175L266.238 105.541C266.519 104.829 266.807 104.006 267.103 103.076L266.15 102.772ZM265.308 105.175L264.368 104.831L258.906 119.776L259.845 120.119L260.784 120.462L266.247 105.518L265.308 105.175ZM259.845 120.119V121.119H274.203V120.119V119.119H259.845V120.119ZM274.203 120.119L275.142 119.775L269.649 104.769L268.71 105.112L267.771 105.456L273.264 120.463L274.203 120.119ZM268.71 105.112L269.636 104.736C269.378 104.101 269.106 103.336 268.82 102.438L267.867 102.741L266.914 103.045C267.211 103.977 267.501 104.793 267.784 105.489L268.71 105.112ZM267.867 102.741L268.82 102.438C268.533 101.537 268.246 100.561 267.957 99.5115L266.993 99.7764L266.029 100.041C266.323 101.113 266.618 102.115 266.914 103.045L267.867 102.741ZM405.759 99.7764L404.79 99.5293C404.523 100.575 404.247 101.558 403.961 102.475L404.916 102.772L405.871 103.07C406.168 102.115 406.453 101.099 406.728 100.023L405.759 99.7764ZM404.916 102.772L403.963 102.469C403.677 103.369 403.403 104.148 403.143 104.808L404.073 105.175L405.004 105.541C405.284 104.829 405.573 104.006 405.869 103.076L404.916 102.772ZM404.073 105.175L403.134 104.832L397.672 119.776L398.611 120.119L399.551 120.462L405.012 105.518L404.073 105.175ZM398.611 120.119V121.119H412.97V120.119V119.119H398.611V120.119ZM412.97 120.119L413.909 119.775L408.415 104.769L407.476 105.112L406.537 105.456L412.031 120.463L412.97 120.119ZM407.476 105.112L408.402 104.736C408.144 104.101 407.872 103.336 407.586 102.438L406.633 102.741L405.68 103.045C405.977 103.977 406.266 104.793 406.549 105.489L407.476 105.112ZM406.633 102.741L407.586 102.438C407.299 101.537 407.011 100.561 406.723 99.5115L405.759 99.7764L404.794 100.041C405.089 101.113 405.384 102.115 405.68 103.045L406.633 102.741ZM468.398 98.9121L468.065 97.9695C467.229 98.2653 466.488 98.6699 465.855 99.1933L466.492 99.9639L467.13 100.734C467.558 100.38 468.088 100.083 468.732 99.8547L468.398 98.9121ZM466.492 99.9639L465.842 99.2045C465.139 99.8062 464.609 100.539 464.257 101.393L465.182 101.773L466.106 102.154C466.337 101.593 466.68 101.12 467.143 100.723L466.492 99.9639ZM465.182 101.773L464.261 101.383C463.912 102.206 463.744 103.101 463.744 104.052H464.744H465.744C465.744 103.339 465.869 102.714 466.102 102.164L465.182 101.773ZM464.744 104.052L463.744 104.052C463.744 105.306 464.094 106.425 464.846 107.339L465.618 106.703L466.39 106.067C465.978 105.567 465.744 104.918 465.744 104.052L464.744 104.052ZM465.618 106.703L464.857 107.352C465.56 108.176 466.463 108.855 467.537 109.403L467.991 108.513L468.446 107.622C467.564 107.172 466.883 106.645 466.379 106.054L465.618 106.703ZM467.991 108.513L467.537 109.403C467.681 109.477 467.825 109.547 467.967 109.615L468.398 108.713L468.83 107.811C468.696 107.747 468.568 107.684 468.446 107.622L467.991 108.513ZM468.398 108.713H469.398V98.9121H468.398H467.398V108.713H468.398Z" fill="#FFCB2C" mask="url(#path-5-outside-3_2416_90)"/>
<mask id="path-7-outside-4_2416_90" maskUnits="userSpaceOnUse" x="147.657" y="7" width="240" height="63" fill="black">
<rect fill="white" x="147.657" y="7" width="240" height="63"/>
<path d="M159.894 16.9025V34.7076H182.451L178.373 43.6518H159.894V68.1546H148.657V8H186.613L182.451 16.9025H159.894Z"/>
<path d="M198.393 68.1546H189.966V23.0386H198.393V68.1546Z"/>
<path d="M245.456 45.5966C245.456 48.9038 244.904 51.9407 243.801 54.7071C242.698 57.4736 241.148 59.8552 239.15 61.8521C237.153 63.8489 234.749 65.3985 231.94 66.5009C229.131 67.6033 226.01 68.1546 222.576 68.1546H205.377V23.0386H222.576C226.01 23.0386 229.131 23.6002 231.94 24.7235C234.749 25.8259 237.153 27.3755 239.15 29.3723C241.148 31.3484 242.698 33.7196 243.801 36.486C244.904 39.2525 245.456 42.2893 245.456 45.5966ZM236.841 45.5966C236.841 43.1214 236.508 40.9061 235.842 38.9509C235.197 36.9749 234.25 35.3108 233.001 33.9588C231.774 32.586 230.275 31.5356 228.507 30.8076C226.759 30.0795 224.782 29.7155 222.576 29.7155H213.805V61.4776H222.576C224.782 61.4776 226.759 61.1136 228.507 60.3856C230.275 59.6576 231.774 58.6176 233.001 57.2656C234.25 55.8928 235.197 54.2287 235.842 52.2735C236.508 50.2975 236.841 48.0718 236.841 45.5966Z"/>
<path d="M267.913 61.384C269.536 61.384 270.983 61.1136 272.252 60.5728C273.542 60.032 274.624 59.2728 275.498 58.2952C276.372 57.3176 277.038 56.132 277.496 54.7383C277.974 53.3447 278.214 51.7847 278.214 50.0583V23.0386H286.61V50.0583C286.61 52.7415 286.173 55.2271 285.299 57.5152C284.446 59.7824 283.208 61.7481 281.585 63.4121C279.983 65.0553 278.026 66.3449 275.717 67.2809C273.407 68.1962 270.806 68.6538 267.913 68.6538C265 68.6538 262.388 68.1962 260.079 67.2809C257.769 66.3449 255.802 65.0553 254.179 63.4121C252.577 61.7481 251.339 59.7824 250.465 57.5152C249.612 55.2271 249.185 52.7415 249.185 50.0583V23.0386H257.582V50.0271C257.582 51.7535 257.81 53.3135 258.268 54.7071C258.747 56.1008 259.423 57.2968 260.297 58.2952C261.192 59.2728 262.274 60.032 263.543 60.5728C264.834 61.1136 266.29 61.384 267.913 61.384Z"/>
<path d="M323.953 57.5152C324.411 57.5152 324.817 57.692 325.171 58.0456L328.479 61.6336C326.648 63.9009 324.39 65.6377 321.706 66.8441C319.042 68.0505 315.838 68.6538 312.092 68.6538C308.742 68.6538 305.725 68.0817 303.04 66.9377C300.377 65.7937 298.098 64.2025 296.204 62.1641C294.311 60.1256 292.854 57.692 291.835 54.8631C290.836 52.0343 290.336 48.9454 290.336 45.5966C290.336 42.2061 290.877 39.1069 291.959 36.2988C293.041 33.47 294.561 31.0364 296.517 28.9979C298.493 26.9595 300.845 25.3787 303.571 24.2555C306.297 23.1114 309.314 22.5394 312.623 22.5394C315.911 22.5394 318.824 23.0802 321.363 24.1619C323.922 25.2435 326.097 26.6579 327.886 28.4051L325.077 32.3052C324.91 32.5548 324.692 32.7732 324.421 32.9604C324.172 33.1476 323.818 33.2412 323.36 33.2412C323.048 33.2412 322.726 33.158 322.393 32.9916C322.06 32.8044 321.696 32.586 321.3 32.3364C320.905 32.066 320.447 31.7748 319.927 31.4628C319.407 31.1508 318.803 30.87 318.116 30.6204C317.43 30.35 316.628 30.1315 315.713 29.9651C314.818 29.7779 313.778 29.6843 312.592 29.6843C310.573 29.6843 308.721 30.0483 307.036 30.7764C305.371 31.4836 303.935 32.5236 302.728 33.8964C301.521 35.2484 300.585 36.9125 299.919 38.8885C299.253 40.8437 298.92 43.0798 298.92 45.5966C298.92 48.1342 299.274 50.3911 299.981 52.3671C300.71 54.3431 301.688 56.0072 302.915 57.3592C304.143 58.7112 305.589 59.7512 307.254 60.4792C308.919 61.1864 310.708 61.54 312.623 61.54C313.767 61.54 314.797 61.4776 315.713 61.3528C316.649 61.228 317.502 61.0304 318.272 60.76C319.063 60.4896 319.802 60.1464 320.489 59.7304C321.196 59.2936 321.893 58.7632 322.58 58.1392C322.788 57.952 323.006 57.8064 323.235 57.7024C323.464 57.5776 323.704 57.5152 323.953 57.5152Z"/>
<path d="M339.537 68.1546H331.109V23.0386H339.537V68.1546Z"/>
<path d="M370.368 51.1191L364.875 36.1116C364.604 35.446 364.323 34.6556 364.032 33.7404C363.741 32.8252 363.449 31.8372 363.158 30.7764C362.887 31.8372 362.607 32.8356 362.315 33.7716C362.024 34.6868 361.743 35.4876 361.472 36.174L356.01 51.1191H370.368ZM385.195 68.1546H378.702C377.974 68.1546 377.381 67.9777 376.923 67.6241C376.465 67.2497 376.122 66.7921 375.893 66.2513L372.522 57.0472H353.825L350.454 66.2513C350.288 66.7297 349.965 67.1665 349.486 67.5617C349.008 67.9569 348.415 68.1546 347.707 68.1546H341.152L358.913 23.0386H367.465L385.195 68.1546Z"/>
</mask>
<path d="M159.894 16.9025V34.7076H182.451L178.373 43.6518H159.894V68.1546H148.657V8H186.613L182.451 16.9025H159.894Z" fill="#000080"/>
<path d="M198.393 68.1546H189.966V23.0386H198.393V68.1546Z" fill="#000080"/>
<path d="M245.456 45.5966C245.456 48.9038 244.904 51.9407 243.801 54.7071C242.698 57.4736 241.148 59.8552 239.15 61.8521C237.153 63.8489 234.749 65.3985 231.94 66.5009C229.131 67.6033 226.01 68.1546 222.576 68.1546H205.377V23.0386H222.576C226.01 23.0386 229.131 23.6002 231.94 24.7235C234.749 25.8259 237.153 27.3755 239.15 29.3723C241.148 31.3484 242.698 33.7196 243.801 36.486C244.904 39.2525 245.456 42.2893 245.456 45.5966ZM236.841 45.5966C236.841 43.1214 236.508 40.9061 235.842 38.9509C235.197 36.9749 234.25 35.3108 233.001 33.9588C231.774 32.586 230.275 31.5356 228.507 30.8076C226.759 30.0795 224.782 29.7155 222.576 29.7155H213.805V61.4776H222.576C224.782 61.4776 226.759 61.1136 228.507 60.3856C230.275 59.6576 231.774 58.6176 233.001 57.2656C234.25 55.8928 235.197 54.2287 235.842 52.2735C236.508 50.2975 236.841 48.0718 236.841 45.5966Z" fill="#000080"/>
<path d="M267.913 61.384C269.536 61.384 270.983 61.1136 272.252 60.5728C273.542 60.032 274.624 59.2728 275.498 58.2952C276.372 57.3176 277.038 56.132 277.496 54.7383C277.974 53.3447 278.214 51.7847 278.214 50.0583V23.0386H286.61V50.0583C286.61 52.7415 286.173 55.2271 285.299 57.5152C284.446 59.7824 283.208 61.7481 281.585 63.4121C279.983 65.0553 278.026 66.3449 275.717 67.2809C273.407 68.1962 270.806 68.6538 267.913 68.6538C265 68.6538 262.388 68.1962 260.079 67.2809C257.769 66.3449 255.802 65.0553 254.179 63.4121C252.577 61.7481 251.339 59.7824 250.465 57.5152C249.612 55.2271 249.185 52.7415 249.185 50.0583V23.0386H257.582V50.0271C257.582 51.7535 257.81 53.3135 258.268 54.7071C258.747 56.1008 259.423 57.2968 260.297 58.2952C261.192 59.2728 262.274 60.032 263.543 60.5728C264.834 61.1136 266.29 61.384 267.913 61.384Z" fill="#000080"/>
<path d="M323.953 57.5152C324.411 57.5152 324.817 57.692 325.171 58.0456L328.479 61.6336C326.648 63.9009 324.39 65.6377 321.706 66.8441C319.042 68.0505 315.838 68.6538 312.092 68.6538C308.742 68.6538 305.725 68.0817 303.04 66.9377C300.377 65.7937 298.098 64.2025 296.204 62.1641C294.311 60.1256 292.854 57.692 291.835 54.8631C290.836 52.0343 290.336 48.9454 290.336 45.5966C290.336 42.2061 290.877 39.1069 291.959 36.2988C293.041 33.47 294.561 31.0364 296.517 28.9979C298.493 26.9595 300.845 25.3787 303.571 24.2555C306.297 23.1114 309.314 22.5394 312.623 22.5394C315.911 22.5394 318.824 23.0802 321.363 24.1619C323.922 25.2435 326.097 26.6579 327.886 28.4051L325.077 32.3052C324.91 32.5548 324.692 32.7732 324.421 32.9604C324.172 33.1476 323.818 33.2412 323.36 33.2412C323.048 33.2412 322.726 33.158 322.393 32.9916C322.06 32.8044 321.696 32.586 321.3 32.3364C320.905 32.066 320.447 31.7748 319.927 31.4628C319.407 31.1508 318.803 30.87 318.116 30.6204C317.43 30.35 316.628 30.1315 315.713 29.9651C314.818 29.7779 313.778 29.6843 312.592 29.6843C310.573 29.6843 308.721 30.0483 307.036 30.7764C305.371 31.4836 303.935 32.5236 302.728 33.8964C301.521 35.2484 300.585 36.9125 299.919 38.8885C299.253 40.8437 298.92 43.0798 298.92 45.5966C298.92 48.1342 299.274 50.3911 299.981 52.3671C300.71 54.3431 301.688 56.0072 302.915 57.3592C304.143 58.7112 305.589 59.7512 307.254 60.4792C308.919 61.1864 310.708 61.54 312.623 61.54C313.767 61.54 314.797 61.4776 315.713 61.3528C316.649 61.228 317.502 61.0304 318.272 60.76C319.063 60.4896 319.802 60.1464 320.489 59.7304C321.196 59.2936 321.893 58.7632 322.58 58.1392C322.788 57.952 323.006 57.8064 323.235 57.7024C323.464 57.5776 323.704 57.5152 323.953 57.5152Z" fill="#000080"/>
<path d="M339.537 68.1546H331.109V23.0386H339.537V68.1546Z" fill="#000080"/>
<path d="M370.368 51.1191L364.875 36.1116C364.604 35.446 364.323 34.6556 364.032 33.7404C363.741 32.8252 363.449 31.8372 363.158 30.7764C362.887 31.8372 362.607 32.8356 362.315 33.7716C362.024 34.6868 361.743 35.4876 361.472 36.174L356.01 51.1191H370.368ZM385.195 68.1546H378.702C377.974 68.1546 377.381 67.9777 376.923 67.6241C376.465 67.2497 376.122 66.7921 375.893 66.2513L372.522 57.0472H353.825L350.454 66.2513C350.288 66.7297 349.965 67.1665 349.486 67.5617C349.008 67.9569 348.415 68.1546 347.707 68.1546H341.152L358.913 23.0386H367.465L385.195 68.1546Z" fill="#000080"/>
<path d="M159.894 16.9025V34.7076H182.451L178.373 43.6518H159.894V68.1546H148.657V8H186.613L182.451 16.9025H159.894Z" stroke="#FFCB2C" stroke-width="2" mask="url(#path-7-outside-4_2416_90)"/>
<path d="M198.393 68.1546H189.966V23.0386H198.393V68.1546Z" stroke="#FFCB2C" stroke-width="2" mask="url(#path-7-outside-4_2416_90)"/>
<path d="M245.456 45.5966C245.456 48.9038 244.904 51.9407 243.801 54.7071C242.698 57.4736 241.148 59.8552 239.15 61.8521C237.153 63.8489 234.749 65.3985 231.94 66.5009C229.131 67.6033 226.01 68.1546 222.576 68.1546H205.377V23.0386H222.576C226.01 23.0386 229.131 23.6002 231.94 24.7235C234.749 25.8259 237.153 27.3755 239.15 29.3723C241.148 31.3484 242.698 33.7196 243.801 36.486C244.904 39.2525 245.456 42.2893 245.456 45.5966ZM236.841 45.5966C236.841 43.1214 236.508 40.9061 235.842 38.9509C235.197 36.9749 234.25 35.3108 233.001 33.9588C231.774 32.586 230.275 31.5356 228.507 30.8076C226.759 30.0795 224.782 29.7155 222.576 29.7155H213.805V61.4776H222.576C224.782 61.4776 226.759 61.1136 228.507 60.3856C230.275 59.6576 231.774 58.6176 233.001 57.2656C234.25 55.8928 235.197 54.2287 235.842 52.2735C236.508 50.2975 236.841 48.0718 236.841 45.5966Z" stroke="#FFCB2C" stroke-width="2" mask="url(#path-7-outside-4_2416_90)"/>
<path d="M267.913 61.384C269.536 61.384 270.983 61.1136 272.252 60.5728C273.542 60.032 274.624 59.2728 275.498 58.2952C276.372 57.3176 277.038 56.132 277.496 54.7383C277.974 53.3447 278.214 51.7847 278.214 50.0583V23.0386H286.61V50.0583C286.61 52.7415 286.173 55.2271 285.299 57.5152C284.446 59.7824 283.208 61.7481 281.585 63.4121C279.983 65.0553 278.026 66.3449 275.717 67.2809C273.407 68.1962 270.806 68.6538 267.913 68.6538C265 68.6538 262.388 68.1962 260.079 67.2809C257.769 66.3449 255.802 65.0553 254.179 63.4121C252.577 61.7481 251.339 59.7824 250.465 57.5152C249.612 55.2271 249.185 52.7415 249.185 50.0583V23.0386H257.582V50.0271C257.582 51.7535 257.81 53.3135 258.268 54.7071C258.747 56.1008 259.423 57.2968 260.297 58.2952C261.192 59.2728 262.274 60.032 263.543 60.5728C264.834 61.1136 266.29 61.384 267.913 61.384Z" stroke="#FFCB2C" stroke-width="2" mask="url(#path-7-outside-4_2416_90)"/>
<path d="M323.953 57.5152C324.411 57.5152 324.817 57.692 325.171 58.0456L328.479 61.6336C326.648 63.9009 324.39 65.6377 321.706 66.8441C319.042 68.0505 315.838 68.6538 312.092 68.6538C308.742 68.6538 305.725 68.0817 303.04 66.9377C300.377 65.7937 298.098 64.2025 296.204 62.1641C294.311 60.1256 292.854 57.692 291.835 54.8631C290.836 52.0343 290.336 48.9454 290.336 45.5966C290.336 42.2061 290.877 39.1069 291.959 36.2988C293.041 33.47 294.561 31.0364 296.517 28.9979C298.493 26.9595 300.845 25.3787 303.571 24.2555C306.297 23.1114 309.314 22.5394 312.623 22.5394C315.911 22.5394 318.824 23.0802 321.363 24.1619C323.922 25.2435 326.097 26.6579 327.886 28.4051L325.077 32.3052C324.91 32.5548 324.692 32.7732 324.421 32.9604C324.172 33.1476 323.818 33.2412 323.36 33.2412C323.048 33.2412 322.726 33.158 322.393 32.9916C322.06 32.8044 321.696 32.586 321.3 32.3364C320.905 32.066 320.447 31.7748 319.927 31.4628C319.407 31.1508 318.803 30.87 318.116 30.6204C317.43 30.35 316.628 30.1315 315.713 29.9651C314.818 29.7779 313.778 29.6843 312.592 29.6843C310.573 29.6843 308.721 30.0483 307.036 30.7764C305.371 31.4836 303.935 32.5236 302.728 33.8964C301.521 35.2484 300.585 36.9125 299.919 38.8885C299.253 40.8437 298.92 43.0798 298.92 45.5966C298.92 48.1342 299.274 50.3911 299.981 52.3671C300.71 54.3431 301.688 56.0072 302.915 57.3592C304.143 58.7112 305.589 59.7512 307.254 60.4792C308.919 61.1864 310.708 61.54 312.623 61.54C313.767 61.54 314.797 61.4776 315.713 61.3528C316.649 61.228 317.502 61.0304 318.272 60.76C319.063 60.4896 319.802 60.1464 320.489 59.7304C321.196 59.2936 321.893 58.7632 322.58 58.1392C322.788 57.952 323.006 57.8064 323.235 57.7024C323.464 57.5776 323.704 57.5152 323.953 57.5152Z" stroke="#FFCB2C" stroke-width="2" mask="url(#path-7-outside-4_2416_90)"/>
<path d="M339.537 68.1546H331.109V23.0386H339.537V68.1546Z" stroke="#FFCB2C" stroke-width="2" mask="url(#path-7-outside-4_2416_90)"/>
<path d="M370.368 51.1191L364.875 36.1116C364.604 35.446 364.323 34.6556 364.032 33.7404C363.741 32.8252 363.449 31.8372 363.158 30.7764C362.887 31.8372 362.607 32.8356 362.315 33.7716C362.024 34.6868 361.743 35.4876 361.472 36.174L356.01 51.1191H370.368ZM385.195 68.1546H378.702C377.974 68.1546 377.381 67.9777 376.923 67.6241C376.465 67.2497 376.122 66.7921 375.893 66.2513L372.522 57.0472H353.825L350.454 66.2513C350.288 66.7297 349.965 67.1665 349.486 67.5617C349.008 67.9569 348.415 68.1546 347.707 68.1546H341.152L358.913 23.0386H367.465L385.195 68.1546Z" stroke="#FFCB2C" stroke-width="2" mask="url(#path-7-outside-4_2416_90)"/>
</svg>
